<svg width="256" height="256" viewBox="0 0 256 256" fill="none" xmlns="http://www.w3.org/2000/svg">
<rect width="256" height="256" rx="20" fill="#2962FF"/>
<path d="M36.4 22.4286H19.6C14.945 22.4286 11.2 26.1783 11.2 30.8393V67.2857H2.8C1.26 67.2857 0 68.5473 0 70.0893V86.9107C0 88.4527 1.26 89.7143 2.8 89.7143H11.2V126.161C11.2 130.822 14.945 134.571 19.6 134.571H36.4C41.055 134.571 44.8 130.822 44.8 126.161V30.8393C44.8 26.1783 41.055 22.4286 36.4 22.4286ZM221.2 67.2857H212.8V30.8393C212.8 26.1783 209.055 22.4286 204.4 22.4286H187.6C182.945 22.4286 179.2 26.1783 179.2 30.8393V126.161C179.2 130.822 182.945 134.571 187.6 134.571H204.4C209.055 134.571 212.8 130.822 212.8 126.161V89.7143H221.2C222.74 89.7143 224 88.4527 224 86.9107V70.0893C224 68.5473 222.74 67.2857 221.2 67.2857ZM159.6 0H142.8C138.145 0 134.4 3.74978 134.4 8.41071V67.2857H89.6V8.41071C89.6 3.74978 85.855 0 81.2 0H64.4C59.745 0 56 3.74978 56 8.41071V148.589C56 153.25 59.745 157 64.4 157H81.2C85.855 157 89.6 153.25 89.6 148.589V89.7143H134.4V148.589C134.4 153.25 138.145 157 142.8 157H159.6C164.255 157 168 153.25 168 148.589V8.41071C168 3.74978 164.255 0 159.6 0Z" transform="translate(16 50)" fill="white"/>
</svg>
